HIERARCHY
ROOT Hips
{
	OFFSET 0.00000 0.00000 0.00000
	CHANNELS 6 Xposition Yposition Zposition Zrotation Yrotation Xrotation 
	JOINT LHipJoint
	{
		OFFSET 0 0 0
		CHANNELS 3 Zrotation Yrotation Xrotation
		JOINT LeftHip
		{
			OFFSET 1.77779 -1.88989 0.48267
			CHANNELS 3 Zrotation Yrotation Xrotation
			JOINT LeftKnee
			{
				OFFSET 2.53442 -6.96327 0.00000
				CHANNELS 3 Zrotation Yrotation Xrotation
				JOINT LeftAnkle
				{
					OFFSET 2.71068 -7.44755 0.00000
					CHANNELS 3 Zrotation Yrotation Xrotation
					JOINT LeftToe
					{
						OFFSET 0.17992 -0.49431 2.22524
						CHANNELS 3 Zrotation Yrotation Xrotation
						End Site
						{
							OFFSET 0.00000 -0.00000 1.14687
						}
					}
				}
			}
		}
	}
	JOINT RHipJoint
	{
		OFFSET 0 0 0
		CHANNELS 3 Zrotation Yrotation Xrotation
		JOINT RightHip
		{
			OFFSET -1.58469 -1.88989 0.48267
			CHANNELS 3 Zrotation Yrotation Xrotation
			JOINT RightKnee
			{
				OFFSET -2.60386 -7.15404 0.00000
				CHANNELS 3 Zrotation Yrotation Xrotation
				JOINT RightAnkle
				{
					OFFSET -2.73334 -7.50979 0.00000
					CHANNELS 3 Zrotation Yrotation Xrotation
					JOINT RightToe
					{
						OFFSET -0.25618 -0.70384 2.21822
						CHANNELS 3 Zrotation Yrotation Xrotation
						End Site
						{
							OFFSET -0.00000 -0.00000 1.16381
						}
					}
				}
			}
		}
	}
	JOINT lowerback
	{
		OFFSET 0 0 0
		CHANNELS 3 Zrotation Yrotation Xrotation
		JOINT Chest
		{
			OFFSET 0.03410 2.01612 -0.22230
			CHANNELS 3 Zrotation Yrotation Xrotation
			JOINT Chest2
			{
				OFFSET 0.03465 2.03012 0.00937
				CHANNELS 3 Zrotation Yrotation Xrotation
				JOINT lowerneck
				{
					OFFSET 0 0 0
					CHANNELS 3 Zrotation Yrotation Xrotation
					JOINT Neck
					{
						OFFSET -0.00219 1.70459 0.20857
						CHANNELS 3 Zrotation Yrotation Xrotation
						JOINT Head
						{
							OFFSET 0.02518 1.72339 -0.22179
							CHANNELS 3 Zrotation Yrotation Xrotation
							End Site
							{
								OFFSET 0.00282 1.74122 -0.09823
							}
						}
					}
				}
				JOINT LeftCollar
				{
					OFFSET 0 0 0
					CHANNELS 3 Zrotation Yrotation Xrotation
					JOINT LeftShoulder
					{
						OFFSET 3.36358 1.00547 -0.37661
CHANNELS 3 Zrotation Xrotation Yrotation
						JOINT LeftElbow
						{
OFFSET 0 -5.065070 0.000000
CHANNELS 3 Zrotation Xrotation Yrotation
							JOINT LeftWrist
							{
OFFSET 0 -3.601960 0.000000
CHANNELS 3 Zrotation Xrotation Yrotation
								JOINT lhand
								{
									OFFSET 0 0 0
CHANNELS 3 Zrotation Xrotation Yrotation
									JOINT LFingers
									{
OFFSET 0 -0.450350 0.000000
CHANNELS 3 Zrotation Xrotation Yrotation
										End Site
										{
OFFSET 0 -0.363080 0.000000
										}
									}
								}
								JOINT LThumb
								{
OFFSET 0 0.000000 0.000000
CHANNELS 3 Zrotation Xrotation Yrotation
									End Site
									{
OFFSET 0 -0.368620 0.368620
									}
								}
							}
						}
					}
				}
				JOINT RightCollar
				{
					OFFSET 0 0 0
					CHANNELS 3 Zrotation Yrotation Xrotation
					JOINT RightShoulder
					{
						OFFSET -3.50159 0.80383 -0.71526
CHANNELS 3 Zrotation Xrotation Yrotation
						JOINT RightElbow
						{
OFFSET 0 -5.363940 0.000000
CHANNELS 3 Zrotation Xrotation Yrotation
							JOINT RightWrist
							{
OFFSET 0 -3.580350 0.000000
CHANNELS 3 Zrotation Xrotation Yrotation
								JOINT rhand
								{
									OFFSET 0 0 0
CHANNELS 3 Zrotation Xrotation Yrotation
									JOINT RFingers
									{
OFFSET 0 -0.663750 0.000000
CHANNELS 3 Zrotation Xrotation Yrotation
										End Site
										{
OFFSET 0 -0.535130 0.000000
										}
									}
								}
								JOINT RThumb
								{
OFFSET 0 0.000000 0.000000
CHANNELS 3 Zrotation Xrotation Yrotation
									End Site
									{
OFFSET 0 -0.543300 0.543300
									}
								}
							}
						}
					}
				}
			}
		}
	}
}
MOTION
Frames: 8
Frame Time: .0083333
1.1629 17.9806 -27.8255 -2.6858 -3.6353 -2.0298 0.0000 0.0000 0.0000 -18.0941 -10.0109 -16.2644 1.6764 8.1568 23.1915 -0.1850 -8.7838 -1.4822 0.0014 0.2406 0.6611 0.0000 0.0000 0.0000 26.4111 2.2637 -0.6287 -8.8046 -16.6803 55.4120 -0.3041 -6.8989 10.2475 -1.2341 -7.0449 19.8484 1.5794 1.4368 10.2539 1.3571 2.1936 -0.5522 0.1933 1.0468 -6.3328 -1.8454 -3.3329 -14.7200 0.5853 -4.3317 21.2425 -0.0193 -2.1122 9.1565 0.0000 0.0000 0.0000 2.4573 8.6764 -15.1392 9.8919 -16.5703 1.444 24.8502 1.9058 -17.5418 0.0 0.0 0.0 -7.1250 0.0 0.0 -3.0736 49.1613 0.3157 0.0000 0.0000 0.0000 -0.4508 -6.8831 8.6941 -19.3652 -29.87 -5.2115 -19.2067 -8.9417 -21.3362 0.0 0.0 0.0 7.1250 0.0 -0.0 5.9965 7.6095 5.1789
1.1802 17.9896 -27.6513 -2.3338 -3.6072 -2.1276 0.0000 0.0000 0.0000 -18.7310 -9.7502 -15.5976 1.6793 8.1634 23.2113 -0.1719 -8.8378 -2.0355 0.0117 0.6993 1.9218 0.0000 0.0000 0.0000 25.8315 2.3273 -2.0861 -9.5023 -17.1203 57.8117 -0.3159 -7.4496 10.5548 -1.4934 -7.7197 21.8659 1.3712 1.4495 10.4077 1.2083 2.1714 -0.2255 0.1581 1.0428 -6.0760 -1.6991 -3.3085 -16.1653 0.5453 -4.3013 21.4487 -0.0817 -2.0802 9.4913 -0.0000 0.0000 0.0000 2.6873 7.9218 -16.0009 10.0394 -16.8012 1.4863 24.9145 1.6324 -17.9489 0.0 0.0 0.0 -7.1250 0.0 0.0 -3.0979 49.61 0.3524 -0.0000 0.0000 0.0000 -0.215 -7.5272 8.0938 -18.9588 -29.3675 -5.0106 -19.1659 -8.8009 -21.8078 0.0 0.0 0.0 7.1250 0.0 -0.0 6.0567 7.1282 5.2887
1.1969 18.0065 -27.4767 -1.9733 -3.6716 -2.2742 0.0000 0.0000 0.0000 -19.3692 -9.4604 -14.8125 1.6746 8.1526 23.1786 -0.1533 -8.7231 -2.4730 0.0355 1.2168 3.3456 0.0000 0.0000 0.0000 25.2590 2.4118 -3.3581 -10.1191 -17.4763 59.8856 -0.2366 -7.6632 9.5058 -1.5036 -7.7450 21.9422 1.1120 1.4952 10.6447 1.0950 2.1940 -0.0355 0.1778 1.0605 -6.0141 -1.6476 -3.2814 -17.1076 0.5309 -4.2600 21.6430 -0.1086 -2.0512 9.7329 0.0000 -0.0000 0.0000 2.8717 7.4629 -16.9632 10.2264 -17.093 1.5408 25.1765 1.5779 -18.5288 0.0 0.0 0.0 -7.1250 0.0 0.0 -2.9677 50.2779 0.3864 0.0000 -0.0000 0.0000 -0.0783 -7.6778 7.6691 -18.7265 -29.0775 -4.8972 -19.0422 -8.5926 -21.9617 0.0 0.0 0.0 7.1250 0.0 -0.0 6.1462 6.9875 5.3847
1.2076 18.0187 -27.3070 -1.8229 -3.7384 -2.3981 0.0000 0.0000 0.0000 -19.7310 -9.1416 -14.0984 1.6681 8.1376 23.1328 -0.1389 -8.7268 -2.9090 0.0076 0.5615 1.5428 0.0000 0.0000 0.0000 24.9868 2.5543 -4.5587 -10.7032 -17.7867 61.8138 -0.1228 -7.9495 7.8523 -1.3763 -7.4241 20.9779 0.9696 1.4988 10.9816 1.0766 2.1881 -0.1642 0.2283 1.0590 -6.3448 -1.5996 -3.2666 -16.8144 0.4191 -4.2286 21.5201 -0.1445 -2.0483 9.6307 0.0000 -0.0000 0.0000 3.0136 7.4954 -17.4858 10.3178 -17.2352 1.5678 25.221 1.5464 -18.5442 0.0 0.0 0.0 -7.1250 0.0 0.0 -2.9271 50.3021 0.3828 0.0000 -0.0000 0.0000 0.039 -7.1139 7.4353 -18.5647 -28.8741 -4.8188 -18.9228 -8.5632 -21.9079 0.0 0.0 0.0 7.1250 0.0 -0.0 6.2175 7.0604 5.4391
1.2178 18.0327 -27.1370 -1.6760 -3.6169 -2.4646 0.0000 0.0000 0.0000 -20.0970 -8.9230 -13.4052 1.6589 8.1161 23.0674 -0.1322 -8.8932 -3.3018 0.0290 1.0989 3.0210 0.0000 0.0000 0.0000 24.7283 2.5854 -5.8299 -11.2312 -18.0464 63.5302 -0.0263 -8.5338 6.4829 -1.1067 -6.6840 18.7825 0.8750 1.3987 11.1086 1.0167 2.0440 -0.3342 0.2364 0.9887 -6.5977 -1.4518 -3.2625 -16.0117 0.2103 -4.2213 21.2093 -0.2219 -2.0632 9.3639 0.0000 0.0000 0.0000 3.205 7.6965 -17.9726 10.4240 -17.4001 1.5994 25.1341 1.2171 -18.0556 0.0 0.0 0.0 -7.1250 0.0 0.0 -2.9050 49.7609 0.3412 0.0000 0.0000 0.0000 0.14 -6.5046 7.3337 -18.2501 -28.4763 -4.6679 -18.7607 -8.6859 -22.251 0.0 0.0 0.0 7.1250 0.0 -0.0 6.3448 6.7307 5.5927
1.2282 18.0483 -26.9644 -1.4676 -3.3630 -2.6702 0.0000 0.0000 0.0000 -20.5775 -8.8742 -12.4980 1.6569 8.1115 23.0533 -0.1142 -8.9025 -3.7811 0.0398 1.2869 3.5385 0.0000 0.0000 0.0000 24.3751 2.4566 -6.9840 -11.6987 -18.2604 65.0306 0.0513 -8.7607 5.1051 -0.8387 -5.8420 16.3267 0.8427 1.4635 11.0677 0.8105 2.1007 0.3391 0.0401 1.0193 -5.8554 -0.9989 -3.4318 -18.0090 0.0886 -4.5283 21.4536 -0.4198 -2.1692 9.8075 -0.0000 0.0000 0.0000 3.7134 6.163 -19.2171 10.4569 -17.4511 1.6093 25.621 1.1451 -17.6381 0.0 0.0 0.0 -7.1250 0.0 0.0 -2.3387 49.3893 0.2533 -0.0000 0.0000 0.0000 0.4596 -7.6335 6.2354 -17.8380 -27.9493 -4.4731 -18.4555 -8.1077 -22.3895 0.0 0.0 0.0 7.1250 0.0 -0.0 6.5467 6.6327 5.7855
1.2351 18.0542 -26.8037 -1.3151 -3.1824 -2.8470 0.0000 0.0000 0.0000 -20.9550 -8.9159 -11.6563 1.6576 8.1133 23.0587 -0.0922 -8.7770 -4.1929 0.0300 1.1180 3.0735 0.0000 0.0000 0.0000 24.0829 2.4511 -8.1717 -12.1342 -18.4468 66.4136 0.0958 -8.4239 3.7456 -0.7235 -5.4351 15.1539 -0.0483 0.8044 11.1882 1.6367 1.1770 -0.4958 1.5527 0.6081 -6.8465 -2.5706 -2.7397 -13.9748 0.0848 -3.2258 20.3424 0.0834 -1.7098 8.7017 -0.0000 0.0000 0.0000 1.922 8.3105 -17.1876 10.7423 -17.8922 1.6959 25.9701 2.3854 -18.0102 0.0 0.0 0.0 -7.1250 0.0 0.0 -2.0704 49.8502 0.2477 -0.0000 0.0000 0.0000 -0.8385 -5.4156 8.183 -17.5963 -27.6371 -4.3603 -18.238 -8.0432 -22.2986 0.0 0.0 0.0 7.1250 0.0 -0.0 6.6768 6.7576 5.8859
1.2448 18.0559 -26.6376 -1.0957 -3.1822 -2.9010 0.0000 0.0000 0.0000 -21.3962 -8.6655 -10.9790 1.6446 8.0829 22.9661 -0.0747 -8.7272 -4.5576 0.0167 0.8347 2.2942 0.0000 0.0000 0.0000 23.6728 2.6186 -9.4040 -12.5275 -18.6048 67.6512 0.1000 -7.7785 2.9183 -0.5934 -4.9318 13.7141 0.4376 1.3115 11.2409 0.8425 1.8499 0.4078 0.3382 0.9075 -5.8948 -1.0408 -3.2283 -17.8527 -0.0326 -4.2012 21.2845 -0.4054 -2.0375 9.7151 -0.0000 0.0000 0.0000 3.698 5.6758 -19.6857 10.7301 -17.8734 1.6922 25.9834 2.4935 -18.3962 0.0 0.0 0.0 -7.1250 0.0 0.0 -2.1374 50.2711 0.2778 -0.0000 0.0000 0.0000 0.4656 -7.1526 5.8002 -17.3672 -27.3393 -4.2546 -17.9847 -7.2554 -22.2527 0.0 0.0 0.0 7.1250 0.0 -0.0 6.8329 6.8408 6.0144
